<svg width="100" height="36" viewBox="0 0 100 36" fill="none" xmlns="http://www.w3.org/2000/svg">
<g clip-path="url(#clip0_31_124)">
<path d="M11.0307 35.625C8.05116 35.5066 5.61341 34.6913 3.70729 33.177C3.34352 32.8877 2.47668 32.0204 2.18586 31.6545C1.41291 30.6826 0.887397 29.7367 0.536887 28.6872C-0.541683 25.4566 0.0134182 21.2173 2.12464 16.5648C3.93229 12.5816 6.72157 8.63111 11.5879 3.15969C12.3047 2.35458 14.4394 0 14.4532 0C14.4583 0 14.342 0.201529 14.1955 0.446939C12.9302 2.56632 11.8476 5.06274 11.2578 7.22397C10.3103 10.6918 10.4246 13.6678 11.5925 15.9755C12.3981 17.5653 13.7792 18.9423 15.3323 19.7035C18.0511 21.0357 22.0318 21.1459 26.893 20.026C27.2277 19.9484 43.8123 15.5459 63.748 10.2423C83.6837 4.93825 99.9975 0.602039 100 0.605609C100.006 0.610209 53.6837 20.4316 29.6374 30.7147C25.8292 32.3428 24.8108 32.754 23.0205 33.3826C18.444 34.9897 14.3445 35.7566 11.0307 35.625Z" fill="black"/>
</g>
<defs>
<clipPath id="clip0_31_124">
<rect width="100" height="35.639" fill="white" transform="translate(0 0.18042)"/>
</clipPath>
</defs>
</svg>
